<svg xmlns="http://www.w3.org/2000/svg" width="99" height="84" viewBox="0 0 99 84" fill="none"><path d="M0.130859 83.9998C13.6544 72.2009 27.0206 60.5411 40.4279 48.8472C52.5507 60.5457 64.6188 72.1941 76.8535 83.9998H0.130859Z" fill="white"></path><path d="M77.1602 83.0396C74.1945 80.1743 71.4775 77.585 68.8198 74.9364C68.5095 74.6261 68.4114 73.9851 68.4091 73.4991C68.3886 59.5284 68.5346 45.5577 68.3316 31.5893C68.2312 24.7043 68.943 17.9858 70.4897 11.3062C71.2425 8.05758 71.7969 4.76337 72.447 1.49197C72.5246 1.09503 72.6318 0.704924 72.7984 0C73.7018 4.54664 74.5458 8.78075 75.3876 13.0126C75.6911 14.5365 75.9374 16.0741 76.307 17.5843C77.0621 20.6686 77.1853 23.7895 77.1785 26.9514C77.1397 45.0969 77.1602 63.2424 77.1602 81.3879V83.0396Z" fill="white"></path><path d="M4.09439 7.57408C4.76966 10.9527 5.44949 14.329 6.11791 17.7076C6.68368 20.5707 7.24488 23.436 7.79239 26.3036C7.89049 26.8215 7.95208 27.353 7.95208 27.88C7.96121 43.4454 7.95436 59.0107 7.97262 74.5738C7.97262 75.3129 7.79011 75.8353 7.20838 76.3281C4.86547 78.3106 2.56592 80.3455 0.118075 82.4762C0.0724488 82.0519 0.0154161 81.7782 0.0154161 81.5044C0.0108535 63.5847 -0.0393352 45.6673 0.0701675 27.75C0.0861367 25.2884 0.880031 22.8269 1.35226 20.3745C2.1781 16.097 3.03815 11.8264 3.88223 7.55127C3.95295 7.55811 4.02367 7.56496 4.09439 7.57408Z" fill="white"></path><path d="M41.3577 48.0168C46.1234 45.6101 50.7476 43.274 55.5064 40.8718C53.5947 39.2886 52.6274 37.4407 53.2365 35.0339C53.6152 33.5374 54.4775 32.4332 55.9193 31.7739C54.7262 33.5168 54.473 35.2689 55.7665 37.0278C56.7269 38.3327 58.3968 38.8756 59.923 38.4604C61.7412 37.9654 62.6378 36.7221 62.9754 34.2195C64.3784 36.6171 63.3245 39.4414 60.2242 41.2893C60.7534 41.7524 61.2439 42.1949 61.7458 42.6215C63.3678 43.9926 65.0126 45.3409 66.605 46.7439C66.8993 47.0039 67.1593 47.4876 67.1616 47.8708C67.1935 55.9535 67.1844 64.0339 67.1821 72.1166C67.1821 72.2512 67.1548 72.388 67.116 72.7462C58.4744 64.4491 49.9765 56.2934 41.3555 48.0168H41.3577Z" fill="white"></path><path d="M96.325 12.3509C97.0961 16.2405 97.89 20.1256 98.6246 24.0221C98.8208 25.0578 98.9212 26.1254 98.9234 27.1794C98.9417 44.709 98.9371 62.2408 98.9371 79.7704V81.4266C98.6177 80.9567 98.4421 80.7399 98.3121 80.5004C96.8452 77.8039 95.3646 75.1142 93.9365 72.3972C93.6856 71.9181 93.5304 71.325 93.5304 70.7866C93.5099 55.9878 93.4506 41.1889 93.5738 26.3924C93.5943 23.8533 94.3859 21.3187 94.8582 18.7888C95.2597 16.6375 95.7159 14.4953 96.1494 12.3486C96.2087 12.3486 96.268 12.3509 96.3296 12.3532L96.325 12.3509Z" fill="white"></path><path d="M88.1008 63.7992C91.7463 70.5313 95.296 77.0855 98.9165 83.7674H77.844C77.965 81.7257 77.4106 79.7569 78.7908 77.795C81.9778 73.2689 84.9389 68.5853 88.1008 63.7969V63.7992Z" fill="white"></path><path d="M32.4189 54.5734V46.9401C32.4189 44.0543 32.5672 41.1616 32.387 38.2872C32.0448 32.7915 33.1626 27.4988 34.2691 22.1902C34.5382 20.8967 34.7938 19.601 35.2523 18.2983C35.7998 21.045 36.2652 23.8123 36.9154 26.5361C37.7435 30.0014 37.9328 33.4941 37.869 37.0347C37.796 40.9814 37.8781 44.9303 37.8233 48.8793C37.8165 49.3994 37.5313 50.0519 37.1549 50.41C35.704 51.7811 34.1618 53.0563 32.4189 54.5734Z" fill="white"></path><path d="M78.082 76.2732V54.4297C81.3055 57.1764 84.3693 59.7885 87.5335 62.485C84.4537 67.1252 81.3922 71.7425 78.3284 76.3599C78.2463 76.3302 78.1642 76.3029 78.082 76.2732Z" fill="white"></path></svg>